<svg xmlns="http://www.w3.org/2000/svg" xmlns:xlink="http://www.w3.org/1999/xlink" width="64" zoomAndPan="magnify" viewBox="0 0 48 48" height="64" preserveAspectRatio="xMidYMid meet" version="1.0"><defs><clipPath id="3356f7f0cb"><path d="M 3.222656 0 L 43.628906 0 L 43.628906 47.019531 L 3.222656 47.019531 Z M 3.222656 0 " clip-rule="nonzero"/></clipPath><clipPath id="e67bce9533"><path d="M 0.488281 0 L 38 0 L 38 29 L 0.488281 29 Z M 0.488281 0 " clip-rule="nonzero"/></clipPath><clipPath id="492a818543"><path d="M 0.488281 19 L 38 19 L 38 47.019531 L 0.488281 47.019531 Z M 0.488281 19 " clip-rule="nonzero"/></clipPath><clipPath id="204b8e9126"><path d="M 26 0 L 47.507812 0 L 47.507812 45 L 26 45 Z M 26 0 " clip-rule="nonzero"/></clipPath><clipPath id="f4543321e1"><path d="M 17.679688 17.265625 L 47.070312 17.265625 L 47.070312 46.652344 L 17.679688 46.652344 Z M 17.679688 17.265625 " clip-rule="nonzero"/></clipPath><clipPath id="002e08370f"><path d="M 32.375 17.265625 C 33.339844 17.265625 34.296875 17.359375 35.242188 17.546875 C 36.1875 17.734375 37.105469 18.015625 38 18.382812 C 38.890625 18.753906 39.738281 19.203125 40.539062 19.742188 C 41.339844 20.277344 42.082031 20.886719 42.765625 21.566406 C 43.449219 22.25 44.058594 22.992188 44.59375 23.792969 C 45.128906 24.597656 45.582031 25.445312 45.949219 26.335938 C 46.320312 27.226562 46.597656 28.144531 46.785156 29.089844 C 46.976562 30.039062 47.070312 30.992188 47.070312 31.957031 C 47.070312 32.921875 46.976562 33.878906 46.785156 34.824219 C 46.597656 35.769531 46.320312 36.691406 45.949219 37.582031 C 45.582031 38.472656 45.128906 39.320312 44.59375 40.121094 C 44.058594 40.925781 43.449219 41.667969 42.765625 42.347656 C 42.082031 43.03125 41.339844 43.640625 40.539062 44.175781 C 39.738281 44.710938 38.890625 45.164062 38 45.535156 C 37.105469 45.902344 36.1875 46.179688 35.242188 46.371094 C 34.296875 46.558594 33.339844 46.652344 32.375 46.652344 C 31.410156 46.652344 30.457031 46.558594 29.507812 46.371094 C 28.5625 46.179688 27.644531 45.902344 26.753906 45.535156 C 25.859375 45.164062 25.015625 44.710938 24.210938 44.175781 C 23.410156 43.640625 22.667969 43.03125 21.984375 42.347656 C 21.304688 41.667969 20.695312 40.925781 20.15625 40.121094 C 19.621094 39.320312 19.167969 38.472656 18.800781 37.582031 C 18.429688 36.691406 18.152344 35.769531 17.964844 34.824219 C 17.777344 33.878906 17.679688 32.921875 17.679688 31.957031 C 17.679688 30.992188 17.777344 30.039062 17.964844 29.089844 C 18.152344 28.144531 18.429688 27.226562 18.800781 26.335938 C 19.167969 25.445312 19.621094 24.597656 20.15625 23.792969 C 20.695312 22.992188 21.304688 22.25 21.984375 21.566406 C 22.667969 20.886719 23.410156 20.277344 24.210938 19.742188 C 25.015625 19.203125 25.859375 18.753906 26.753906 18.382812 C 27.644531 18.015625 28.5625 17.734375 29.507812 17.546875 C 30.457031 17.359375 31.410156 17.265625 32.375 17.265625 Z M 32.375 17.265625 " clip-rule="nonzero"/></clipPath><linearGradient x1="0.00000080625" gradientTransform="matrix(0.326531, 0, 0, 0.326531, 17.681632, 17.264441)" y1="45" x2="89.999995" gradientUnits="userSpaceOnUse" y2="45" id="497e60b0d6"><stop stop-opacity="1" stop-color="rgb(10.998535%, 5.099487%, 17.999268%)" offset="0"/><stop stop-opacity="1" stop-color="rgb(11.073303%, 5.073547%, 18.173218%)" offset="0.125"/><stop stop-opacity="1" stop-color="rgb(11.224365%, 5.023193%, 18.52417%)" offset="0.25"/><stop stop-opacity="1" stop-color="rgb(11.373901%, 4.974365%, 18.873596%)" offset="0.375"/><stop stop-opacity="1" stop-color="rgb(11.523438%, 4.924011%, 19.223022%)" offset="0.5"/><stop stop-opacity="1" stop-color="rgb(11.6745%, 4.873657%, 19.573975%)" offset="0.625"/><stop stop-opacity="1" stop-color="rgb(11.824036%, 4.823303%, 19.923401%)" offset="0.75"/><stop stop-opacity="1" stop-color="rgb(11.973572%, 4.772949%, 20.274353%)" offset="0.875"/><stop stop-opacity="1" stop-color="rgb(12.124634%, 4.724121%, 20.623779%)" offset="1"/></linearGradient></defs><g clip-path="url(#3356f7f0cb)"><path fill="#ffde59" d="M 3.226562 11.753906 L 23.425781 0 L 43.625 11.753906 L 43.625 35.265625 L 23.425781 47.019531 L 3.226562 35.265625 Z M 3.226562 11.753906 " fill-opacity="1" fill-rule="nonzero"/></g><g clip-path="url(#e67bce9533)"><path stroke-linecap="butt" transform="matrix(0.638647, -0.38199, 0.377127, 0.630516, 7.38054, 14.755747)" fill="none" stroke-linejoin="miter" d="M -0.00216429 1.501233 L 26.66152 1.497684 " stroke="#1d0d30" stroke-width="3" stroke-opacity="1" stroke-miterlimit="4"/></g><g clip-path="url(#492a818543)"><path stroke-linecap="butt" transform="matrix(0.650137, 0.36209, -0.35748, 0.641859, 8.209523, 30.862851)" fill="none" stroke-linejoin="miter" d="M -0.00260707 1.499256 L 26.663188 1.500573 " stroke="#1d0d30" stroke-width="3" stroke-opacity="1" stroke-miterlimit="4"/></g><g clip-path="url(#204b8e9126)"><path stroke-linecap="butt" transform="matrix(-0.00306615, -0.744162, 0.734688, -0.00302712, 37.493405, 32.356479)" fill="none" stroke-linejoin="miter" d="M 0.000514076 1.497707 L 26.661148 1.502635 " stroke="#1d0d30" stroke-width="3" stroke-opacity="1" stroke-miterlimit="4"/></g><g clip-path="url(#f4543321e1)"><g clip-path="url(#002e08370f)"><path fill="url(#497e60b0d6)" d="M 17.679688 17.265625 L 17.679688 46.652344 L 47.070312 46.652344 L 47.070312 17.265625 Z M 17.679688 17.265625 " fill-rule="nonzero"/></g></g><path fill="#efe4cf" d="M 38.726562 25.867188 L 40.210938 25.867188 L 40.210938 24.253906 L 24.554688 24.253906 L 24.554688 25.867188 L 26.226562 25.867188 C 26.554688 28.632812 29.085938 31.957031 29.085938 31.957031 C 26.148438 36.164062 26.257812 38.164062 26.257812 38.164062 L 24.554688 38.164062 L 24.554688 39.660156 L 40.210938 39.660156 L 40.210938 38.164062 L 38.253906 38.164062 C 38.253906 38.164062 38.375 36.164062 35.421875 31.957031 C 35.421875 31.957031 37.949219 28.632812 38.28125 25.867188 Z M 33.628906 31.769531 C 33.355469 31.957031 34.207031 33.199219 34.207031 33.199219 C 34.207031 33.199219 37.101562 37.183594 36.550781 38.164062 L 27.960938 38.164062 C 27.414062 37.183594 30.304688 33.199219 30.304688 33.199219 C 30.304688 33.199219 31.15625 31.957031 30.882812 31.769531 C 27.945312 28.359375 28.171875 25.867188 28.171875 25.867188 L 36.335938 25.867188 C 36.335938 25.867188 36.582031 28.367188 33.628906 31.769531 Z M 33.628906 31.769531 " fill-opacity="1" fill-rule="nonzero"/><path fill="#efe4cf" d="M 32.257812 30.824219 C 30.363281 29.730469 29.800781 27.082031 29.800781 27.082031 L 34.714844 27.082031 C 34.714844 27.082031 34.152344 29.730469 32.257812 30.824219 Z M 32.257812 30.824219 " fill-opacity="1" fill-rule="nonzero"/></svg>