<svg xmlns="http://www.w3.org/2000/svg" xmlns:xlink="http://www.w3.org/1999/xlink" width="64" zoomAndPan="magnify" viewBox="0 0 48 48" height="64" preserveAspectRatio="xMidYMid meet" version="1.0"><defs><clipPath id="1ac06e7058"><path d="M 5.691406 11 L 42.425781 11 L 42.425781 17 L 5.691406 17 Z M 5.691406 11 " clip-rule="nonzero"/></clipPath></defs><path fill="#710d7d" d="M 39.554688 17.359375 L 37.882812 44.519531 C 37.800781 45.855469 36.761719 46.976562 35.378906 46.976562 L 12.742188 46.976562 C 11.359375 46.976562 10.316406 45.859375 10.234375 44.519531 L 8.5625 17.359375 Z M 16.484375 20.488281 C 16.484375 20.082031 16.15625 19.753906 15.75 19.753906 C 15.34375 19.753906 15.015625 20.082031 15.015625 20.488281 L 15.015625 42.9375 C 15.015625 43.339844 15.34375 43.671875 15.75 43.671875 C 16.15625 43.671875 16.484375 43.339844 16.484375 42.9375 Z M 24.792969 20.488281 C 24.792969 20.082031 24.464844 19.753906 24.058594 19.753906 C 23.652344 19.753906 23.324219 20.082031 23.324219 20.488281 L 23.324219 42.9375 C 23.324219 43.339844 23.652344 43.671875 24.058594 43.671875 C 24.464844 43.671875 24.792969 43.339844 24.792969 42.9375 Z M 33.101562 20.488281 C 33.101562 20.082031 32.773438 19.753906 32.367188 19.753906 C 31.960938 19.753906 31.632812 20.082031 31.632812 20.488281 L 31.632812 42.9375 C 31.632812 43.339844 31.960938 43.671875 32.367188 43.671875 C 32.773438 43.671875 33.101562 43.339844 33.101562 42.9375 Z M 33.101562 20.488281 " fill-opacity="1" fill-rule="nonzero"/><g clip-path="url(#1ac06e7058)"><path fill="#710d7d" d="M 6.425781 11.019531 L 41.691406 11.019531 C 42.097656 11.019531 42.429688 11.347656 42.429688 11.753906 L 42.429688 15.707031 C 42.429688 16.113281 42.097656 16.441406 41.691406 16.441406 L 6.425781 16.441406 C 6.019531 16.441406 5.691406 16.113281 5.691406 15.707031 L 5.691406 11.753906 C 5.691406 11.347656 6.019531 11.019531 6.425781 11.019531 Z M 6.425781 11.019531 " fill-opacity="1" fill-rule="nonzero"/></g><path fill="#040566" d="M 9.199219 10.101562 C 9.425781 9.5625 9.753906 9.074219 10.160156 8.667969 C 10.957031 7.875 12.050781 7.386719 13.257812 7.386719 L 34.859375 7.386719 C 36.066406 7.386719 37.164062 7.875 37.957031 8.667969 C 38.363281 9.074219 38.695312 9.5625 38.917969 10.101562 Z M 9.199219 10.101562 " fill-opacity="1" fill-rule="nonzero"/><path fill="#040566" d="M 28.996094 8.117188 L 28.996094 6.785156 C 28.996094 6.210938 28.761719 5.6875 28.378906 5.308594 C 27.996094 4.929688 27.472656 4.691406 26.898438 4.691406 L 21.21875 4.691406 C 20.644531 4.691406 20.121094 4.929688 19.738281 5.308594 C 19.355469 5.6875 19.121094 6.210938 19.121094 6.785156 L 19.121094 8.117188 C 19.121094 8.523438 18.789062 8.851562 18.382812 8.851562 L 15.191406 8.851562 C 14.785156 8.851562 14.457031 8.523438 14.457031 8.117188 L 14.457031 6.785156 C 14.457031 4.929688 15.21875 3.242188 16.441406 2.023438 C 17.667969 0.804688 19.359375 0.046875 21.21875 0.046875 L 26.898438 0.046875 C 28.757812 0.046875 30.449219 0.804688 31.675781 2.023438 C 32.898438 3.242188 33.660156 4.929688 33.660156 6.785156 L 33.660156 8.117188 C 33.660156 8.523438 33.332031 8.851562 32.925781 8.851562 L 29.734375 8.851562 C 29.328125 8.851562 28.996094 8.523438 28.996094 8.117188 Z M 30.46875 6.785156 L 30.46875 7.386719 L 32.1875 7.386719 L 32.1875 6.785156 C 32.1875 5.332031 31.59375 4.015625 30.636719 3.058594 C 29.675781 2.105469 28.351562 1.511719 26.898438 1.511719 L 21.21875 1.511719 C 19.765625 1.511719 18.441406 2.105469 17.484375 3.058594 C 16.523438 4.015625 15.929688 5.332031 15.929688 6.785156 L 15.929688 7.386719 L 17.648438 7.386719 L 17.648438 6.785156 C 17.648438 5.804688 18.050781 4.917969 18.699219 4.269531 C 19.34375 3.625 20.238281 3.226562 21.21875 3.226562 L 26.898438 3.226562 C 27.878906 3.226562 28.773438 3.625 29.417969 4.269531 C 30.066406 4.917969 30.46875 5.804688 30.46875 6.785156 Z M 30.46875 6.785156 " fill-opacity="1" fill-rule="nonzero"/></svg>