<svg xmlns="http://www.w3.org/2000/svg" xmlns:xlink="http://www.w3.org/1999/xlink" viewBox="0 0 90 90"><defs><style>.cls-1{fill:url(#linear-gradient);}.cls-2{fill:none;}.cls-3{fill:#efe4cf;}</style><linearGradient id="linear-gradient" y1="45" x2="90" y2="45" gradientUnits="userSpaceOnUse"><stop offset="0" stop-color="#1c0d2e"/><stop offset="1" stop-color="#1f0c35"/></linearGradient></defs><g id="Layer_2" data-name="Layer 2"><g id="Layer_1-2" data-name="Layer 1"><rect class="cls-1" width="90" height="90" rx="45"/><path class="cls-2" d="M40.43,44.42c.84.58-1.77,4.38-1.77,4.38S29.8,61,31.48,64H57.79c1.68-3-7.18-15.2-7.18-15.2S48,45,48.84,44.42c9-10.44,8.3-18.08,8.3-18.08h-25S31.39,34,40.43,44.42Z"/><path class="cls-3" d="M64.45,26.34H69V21.41H21.05v4.93h5.12c1,8.48,8.76,18.66,8.76,18.66-9,12.88-8.67,19-8.67,19H21.05v4.59H69V64H63s.37-6.12-8.67-19c0,0,7.74-10.18,8.76-18.66ZM48.84,44.42C48,45,50.61,48.8,50.61,48.8S59.47,61,57.79,64H31.48c-1.68-3,7.18-15.2,7.18-15.2s2.61-3.8,1.77-4.38c-9-10.44-8.3-18.08-8.3-18.08h25S57.88,34,48.84,44.42Z"/><path class="cls-3" d="M44.64,41.53c-5.8-3.35-7.53-11.46-7.53-11.46H52.17S50.44,38.18,44.64,41.53Z"/></g></g></svg>